<svg xmlns="http://www.w3.org/2000/svg" width="960" height="960" viewBox="0 0 960 960">
    <title>no.tjweb.cavius</title>
    <desc>Cavius</desc>
	<path fill="#fff" d="M928,60V208H568c-70.614,0-148.718-6.018-204,12-71.581,23.331-119.294,68.785-152,132-18.33,35.428-46.188,100.57-32,164,22.114,98.868,61.186,167.552,140,208,58.675,30.113,143.484,28,232,28H928V900H548c-87.895,0-174.856,3.953-240-20C198.811,839.851,127.268,767.026,76,668,40.657,599.734,12.028,468.924,40,364,78.96,217.86,175.956,121.1,316,76c64.045-20.625,149.08-16,232-16H928Z"/>
</svg>
